HIERARCHY
ROOT Hips
{
 OFFSET 0.000000 0.000000 0.000000
 CHANNELS 6 Xposition Yposition Zposition Yrotation Xrotation Zrotation
 JOINT Chest
 {
  OFFSET 0.000000 11.395451 -0.039534
  CHANNELS 3 Yrotation Xrotation Zrotation
  JOINT Chest2
  {
   OFFSET 0.000000 9.398669 0.071813
   CHANNELS 3 Yrotation Xrotation Zrotation
   JOINT Chest3
   {
    OFFSET 0.000000 8.489801 0.000000
    CHANNELS 3 Yrotation Xrotation Zrotation
    JOINT Chest4
    {
     OFFSET 0.000000 8.489801 0.000000
     CHANNELS 3 Yrotation Xrotation Zrotation
     JOINT Neck
     {
      OFFSET 0.000000 12.404889 0.000000
      CHANNELS 3 Yrotation Xrotation Zrotation
      JOINT Head
      {
       OFFSET 0.000000 8.903270 0.092239
       CHANNELS 3 Yrotation Xrotation Zrotation
       End Site
       {
        OFFSET 0.000000 17.592497 0.007158
       }
      }
     }
     JOINT RightCollar
     {
      OFFSET -3.196775 6.966722 0.000000
      CHANNELS 3 Yrotation Xrotation Zrotation
      JOINT RightShoulder
      {
       OFFSET -15.955896 0.000000 0.000000
       CHANNELS 3 Yrotation Xrotation Zrotation
       JOINT RightElbow
       {
        OFFSET -24.792472 0.000000 0.000000
        CHANNELS 3 Yrotation Xrotation Zrotation
        JOINT RightWrist
        {
         OFFSET -20.900115 0.000000 0.025002
         CHANNELS 3 Yrotation Xrotation Zrotation
         End Site
         {
          OFFSET -16.056692 0.000000 0.000000
         }
        }
       }
      }
     }
     JOINT LeftCollar
     {
      OFFSET 3.196775 6.966722 0.000000
      CHANNELS 3 Yrotation Xrotation Zrotation
      JOINT LeftShoulder
      {
       OFFSET 15.955896 0.000000 0.000000
       CHANNELS 3 Yrotation Xrotation Zrotation
       JOINT LeftElbow
       {
        OFFSET 24.792472 0.000000 0.000000
        CHANNELS 3 Yrotation Xrotation Zrotation
        JOINT LeftWrist
        {
         OFFSET 20.900115 0.000000 0.025002
         CHANNELS 3 Yrotation Xrotation Zrotation
         End Site
         {
          OFFSET 16.056692 0.000000 0.000000
         }
        }
       }
      }
     }
    }
   }
  }
 }
 JOINT RightHip
 {
  OFFSET -9.568995 0.193718 0.019767
  CHANNELS 3 Yrotation Xrotation Zrotation
  JOINT RightKnee
  {
   OFFSET 0.000000 -56.649296 0.015402
   CHANNELS 3 Yrotation Xrotation Zrotation
   JOINT RightAnkle
   {
    OFFSET 0.000000 -41.365147 0.021264
    CHANNELS 3 Yrotation Xrotation Zrotation
    JOINT RightToe
    {
     OFFSET 0.000000 -7.465940 17.672538
     CHANNELS 3 Yrotation Xrotation Zrotation
     End Site
     {
      OFFSET 0.000000 -1.736315 7.837145
     }
    }
   }
  }
 }
 JOINT LeftHip
 {
  OFFSET 9.568995 0.193718 0.019767
  CHANNELS 3 Yrotation Xrotation Zrotation
  JOINT LeftKnee
  {
   OFFSET 0.000000 -56.649296 0.015402
   CHANNELS 3 Yrotation Xrotation Zrotation
   JOINT LeftAnkle
   {
    OFFSET 0.000000 -41.365147 0.021264
    CHANNELS 3 Yrotation Xrotation Zrotation
    JOINT LeftToe
    {
     OFFSET 0.000000 -7.465940 17.672538
     CHANNELS 3 Yrotation Xrotation Zrotation
     End Site
     {
      OFFSET 0.000000 -1.736315 7.837145
     }
    }
   }
  }
 }
}
MOTION
Frames: 14
Frame Time: 0.016667
83.965879 103.034927 329.046852 -21.843640 -3.737941 -5.427100 1.297113 1.918739 -2.087551 0.585040 0.846931 -0.933028 0.585040 0.846931 -0.933028 0.440066 0.634308 -0.700570 -17.109349 16.402807 6.468994 -33.730799 -2.012951 17.452376 4.546390 -2.290802 13.836748 17.091035 -11.344445 74.509994 28.487397 -5.020761 17.460260 -7.430893 0.019183 -1.104365 -5.442999 -1.410707 -4.026968 14.941898 7.982418 -69.990363 5.697238 20.983905 -4.912541 2.477676 -2.408426 1.522248 -1.114490 -4.732701 9.325209 -1.427710 38.340333 2.224975 1.926585 -16.453609 0.217317 0.857143 -13.218094 -7.387725 9.656459 -21.628019 17.086406 -12.148128 14.166537 1.701907 3.246957 -14.839738 0.610372 0.000000 -0.000000 -0.000000
83.017813 103.396086 328.181839 -24.945245 -3.356971 -4.918083 1.435734 1.875819 -2.169501 0.646810 0.827047 -0.969968 0.646827 0.827086 -0.970010 0.486437 0.619315 -0.728396 -16.856805 16.331065 6.673832 -33.349019 -2.147193 17.774606 4.629946 -2.178444 13.732990 16.989620 -11.370643 74.418562 27.892511 -4.929556 17.568022 -7.802578 0.246882 -0.972238 -5.454661 -1.328786 -3.978294 14.491023 7.784327 -70.814449 5.265114 19.568922 -4.680656 3.217586 -2.508620 1.595732 0.805299 -5.732981 9.610345 -1.947765 37.977005 1.851477 2.810131 -14.858045 -0.457870 0.932322 -13.937648 -7.600502 6.225388 -21.401357 16.793747 -13.155586 16.237551 1.160787 2.618836 -13.510120 -0.768577 0.000000 -0.000000 -0.000000
82.220565 103.802179 327.323380 -27.807155 -2.858267 -4.279327 1.525290 1.841849 -2.280384 0.686878 0.811171 -1.019488 0.686887 0.811213 -1.019523 0.516517 0.607293 -0.765562 -16.523326 16.233257 6.915010 -32.837530 -2.340703 18.148602 4.708169 -2.127428 13.543393 16.998498 -11.514559 74.372764 27.046728 -4.952642 17.378156 -8.020744 0.403665 -1.086778 -5.505561 -1.278524 -3.932747 13.726649 7.706046 -71.564453 4.246876 17.814832 -4.732711 4.126185 -2.627631 1.523140 2.567023 -7.004207 9.649975 -2.546990 37.978154 1.422111 3.588783 -12.876768 -0.951875 1.054612 -15.207021 -7.852613 2.434689 -21.511654 16.032947 -12.025926 18.686081 0.593998 2.981185 -12.477470 -3.426108 0.000000 -0.000000 -0.000000
81.457507 104.198675 326.541063 -30.755728 -2.408530 -3.624613 1.685018 1.840340 -2.349975 0.758112 0.809387 -1.050973 0.758112 0.809387 -1.050973 0.569968 0.605740 -0.789223 -16.226424 16.082501 7.072274 -32.381861 -2.646942 18.396750 4.805523 -2.074303 13.339606 17.189178 -11.689885 74.217368 26.277796 -5.250630 17.057675 -8.141905 0.429006 -1.304433 -5.516346 -1.234043 -3.903893 13.101006 7.611847 -72.063527 2.878983 16.249183 -5.196673 4.498884 -2.827580 1.200504 3.814651 -7.949935 9.595930 -2.516984 37.841598 1.115044 4.602299 -11.086274 -1.289605 1.181886 -16.124097 -8.329575 -0.305329 -21.868423 14.974558 -10.251827 20.753410 0.035614 2.945142 -11.679664 -5.584476 0.000000 0.000000 0.000000
80.702127 104.579279 325.848022 -33.908018 -2.066009 -2.958582 1.978967 1.901056 -2.369430 0.889149 0.834739 -1.060989 0.889166 0.834702 -1.060967 0.668324 0.624463 -0.796916 -16.018688 15.835494 7.112822 -32.078286 -3.138639 18.486452 4.941937 -1.977575 13.132587 17.611997 -11.906766 73.894589 25.677811 -6.027865 16.660782 -8.180106 0.249924 -1.678010 -5.463058 -1.162333 -3.899308 12.728368 7.479660 -72.193947 1.050669 15.036640 -6.296271 3.911607 -3.153338 0.521409 4.241570 -8.331715 9.474781 -1.317094 37.365960 1.098830 5.987067 -9.679341 -1.378497 1.296299 -16.284106 -9.199974 -1.488436 -22.512355 13.666481 -7.847098 22.315072 -0.417914 1.891060 -10.852706 -6.491079 -0.000000 0.000000 -0.000000
79.980938 104.950286 325.231121 -37.149850 -1.764031 -2.266727 2.342919 2.003342 -2.355876 1.051343 0.878424 -1.056961 1.051365 0.878395 -1.056939 0.790042 0.656963 -0.794190 -15.845998 15.526303 7.079035 -31.832029 -3.756458 18.469313 5.095787 -1.877144 12.908486 18.219748 -12.159479 73.461350 25.151502 -7.094058 16.165242 -8.109536 -0.064637 -2.138955 -5.371088 -1.097309 -3.913893 12.506663 7.381123 -72.083130 -1.149136 13.924125 -7.779009 2.772954 -3.625194 -0.334399 4.142452 -8.418269 9.264167 0.525870 36.764877 1.238600 7.622646 -8.445568 -1.281114 1.396659 -16.088565 -10.294641 -1.589678 -23.384326 12.035396 -4.749077 23.485123 -0.590701 0.509298 -9.980649 -6.862884 0.000000 -0.000000 -0.000000
79.256850 105.276050 324.720542 -40.465745 -1.491459 -1.625775 2.705892 2.101333 -2.277009 1.212714 0.920634 -1.024073 1.212714 0.920634 -1.024073 0.911062 0.688449 -0.769869 -15.668887 15.238959 6.963747 -31.547124 -4.362546 18.296146 5.232760 -1.826874 12.700774 18.937843 -12.348051 72.927791 24.732407 -8.014070 15.631333 -7.964441 -0.354128 -2.368311 -5.234141 -1.112815 -3.941744 12.566663 7.338985 -71.930096 -3.211801 12.856661 -9.161530 1.639372 -4.255871 -1.041385 4.050750 -8.366915 9.046990 2.149710 36.164118 1.293712 9.470558 -7.343751 -1.241881 1.472488 -15.848682 -11.300022 -0.645979 -24.151581 9.969971 -2.471438 23.997438 -0.519489 -0.580893 -9.331204 -7.188852 0.000000 0.000000 0.000000
78.552601 105.548972 324.350838 -43.901423 -1.261999 -1.046373 3.079728 2.191275 -2.098450 1.378388 0.959898 -0.946988 1.378379 0.959868 -0.946992 1.035248 0.717755 -0.712404 -15.503610 14.983154 6.725349 -31.235978 -4.947730 17.892267 5.343698 -1.871230 12.497526 19.766113 -12.393981 72.297052 24.497051 -8.674629 15.026740 -7.778856 -0.579066 -2.179809 -5.022382 -1.277659 -3.987867 13.026617 7.384337 -71.822204 -5.045114 11.892946 -10.340969 0.616109 -5.154210 -1.504763 3.948840 -8.168476 8.803559 3.257739 35.581981 1.114794 11.775291 -6.366599 -1.344032 1.526006 -15.623759 -12.140944 1.890836 -24.730593 7.081395 -1.824015 23.877616 -0.131862 -1.122552 -9.120149 -7.616842 -0.000000 -0.000000 0.000000
77.845453 105.776650 324.087455 -47.413628 -1.067347 -0.510540 3.454213 2.289265 -1.852944 1.544024 1.003536 -0.840357 1.544027 1.003478 -0.840352 1.159377 0.750458 -0.632791 -15.336385 14.739947 6.403686 -30.888772 -5.536366 17.330234 5.443491 -1.965152 12.319420 20.706639 -12.376611 71.566983 24.378621 -9.187905 14.377665 -7.561667 -0.788184 -1.757184 -4.759808 -1.520100 -4.036566 13.761614 7.504688 -71.687514 -6.746974 10.994070 -11.477691 -0.382559 -6.188662 -1.815107 3.852978 -7.836556 8.526288 4.153517 34.983255 0.860637 14.297942 -5.503811 -1.501485 1.560246 -15.358601 -12.894653 5.492287 -25.089669 3.684927 -2.113982 23.256339 0.419410 -1.405141 -9.172000 -7.963479 0.000000 0.000000 0.000000
77.030115 105.946237 323.856920 -50.853260 -0.875502 -0.054721 3.726381 2.373332 -1.602978 1.663999 1.041919 -0.731325 1.663999 1.041919 -0.731325 1.249214 0.779456 -0.551321 -15.086787 14.557121 6.104925 -30.379234 -6.029884 16.764206 5.534267 -2.023367 12.247344 21.691117 -12.442019 70.744102 24.188214 -9.450252 13.817849 -7.317261 -0.951058 -1.339202 -4.523185 -1.703583 -4.052159 14.534544 7.643677 -71.486165 -8.091738 10.036408 -12.511278 -1.083020 -6.964029 -1.996470 4.352717 -7.521572 8.337639 4.868884 34.432521 0.730970 16.276493 -4.731121 -1.737220 1.589329 -15.195607 -13.483092 8.449755 -25.085353 0.757206 -2.645444 22.040585 0.676053 -1.648610 -9.246297 -8.231830 0.000000 -0.000000 -0.000000
76.054678 106.053827 323.644959 -54.137762 -0.677555 0.309828 3.829952 2.419177 -1.358652 1.708857 1.064063 -0.623699 1.708837 1.064130 -0.623709 1.282666 0.796407 -0.470750 -14.714586 14.463792 5.842381 -29.630343 -6.380809 16.197415 5.616811 -2.018360 12.333461 22.788930 -12.620126 69.777008 23.874568 -9.361514 13.391260 -7.035198 -1.033748 -0.979940 -4.323471 -1.788439 -4.013536 15.308725 7.824956 -71.222968 -9.006074 8.812388 -13.483661 -1.364515 -7.327741 -2.022692 5.906596 -7.280921 8.295193 5.263293 33.956696 0.777008 17.306810 -4.074099 -2.090916 1.620430 -15.200067 -13.834804 10.305391 -24.628060 -1.422753 -3.165877 19.967419 0.547381 -1.914597 -9.279036 -8.345357 -0.000000 -0.000000 -0.000000
74.971049 106.103326 323.465846 -57.350893 -0.498438 0.597731 3.831577 2.449090 -1.103964 1.708309 1.079416 -0.510770 1.708286 1.079460 -0.510775 1.282066 0.808205 -0.386091 -14.265835 14.436919 5.591693 -28.725077 -6.623688 15.606040 5.689106 -1.960599 12.519161 23.946128 -12.893570 68.732285 23.492586 -9.012419 13.044130 -6.714786 -1.074728 -0.621393 -4.153500 -1.811490 -3.948072 16.120678 8.034227 -70.896150 -9.566289 7.573993 -14.390440 -1.350862 -7.410582 -1.977738 8.059160 -7.026902 8.351625 5.462096 33.546022 0.917178 17.803471 -3.542511 -2.560453 1.653784 -15.305273 -14.021985 11.479271 -23.883825 -3.135940 -3.937406 17.279646 0.274166 -2.145701 -9.330345 -8.381635 0.000000 0.000000 0.000000
73.829661 106.093603 323.288920 -60.592735 -0.360973 0.810700 3.827227 2.503400 -0.863932 1.705233 1.105473 -0.404518 1.705233 1.105473 -0.404518 1.279617 0.827984 -0.306467 -13.789783 14.453560 5.400049 -27.776941 -6.772032 15.098931 5.745264 -1.824176 12.710747 24.908872 -13.346706 67.793418 23.008149 -8.583164 12.753566 -6.361999 -1.143739 -0.331655 -4.068450 -1.757712 -3.900797 16.851588 8.150347 -70.449836 -9.807146 6.904829 -15.110044 -1.147599 -7.242724 -2.072241 10.030868 -6.682232 8.483645 5.886987 33.227480 1.137364 18.231521 -3.098197 -3.115673 1.695286 -15.455059 -14.181959 11.593184 -23.219517 -4.237876 -4.975038 14.565780 -0.056851 -2.355872 -9.361265 -8.596729 0.000000 0.000000 0.000000
72.664278 106.018108 323.114609 -63.942096 -0.273215 0.945599 3.847018 2.602013 -0.641506 1.712968 1.151109 -0.306611 1.712993 1.151111 -0.306614 1.285297 0.862483 -0.233184 -13.290717 14.506303 5.292796 -26.805675 -6.831118 14.727689 5.785859 -1.549934 12.875166 25.680271 -14.101603 66.932753 22.391079 -8.063965 12.534631 -5.960507 -1.267851 -0.113052 -4.127098 -1.592025 -3.912478 17.507736 8.114610 -69.839581 -9.774440 7.018690 -15.698691 -0.775528 -6.747042 -2.385124 11.621419 -6.231965 8.690472 6.790931 33.005557 1.473976 18.625933 -2.750908 -3.785721 1.746854 -15.648658 -14.295070 10.241003 -22.703558 -4.577168 -6.347313 11.770435 -0.386365 -2.537223 -9.444454 -9.127826 0.000000 0.000000 0.000000
